<?xml version="1.0" encoding="utf-8"?>
<!-- Generator: Adobe Illustrator 21.0.0, SVG Export Plug-In . SVG Version: 6.00 Build 0)  -->
<svg version="1.1" id="Layer_1" xmlns="http://www.w3.org/2000/svg" xmlns:xlink="http://www.w3.org/1999/xlink" x="0px" y="0px"
	 viewBox="0 0 309.4 309.4" style="enable-background:new 0 0 309.4 309.4;" xml:space="preserve">
<style type="text/css">
	.st0{fill:none;stroke:#29ABE2;stroke-miterlimit:10;}
	.st1{opacity:0.4;fill:none;stroke:#29ABE2;stroke-miterlimit:10;stroke-dasharray:2;enable-background:new    ;}
	.st2{fill:none;stroke:#9BC773;stroke-miterlimit:10;}
	.st3{opacity:0.4;fill:none;stroke:#9BC773;stroke-miterlimit:10;stroke-dasharray:2;enable-background:new    ;}
	.st4{fill:none;stroke:#E69163;stroke-miterlimit:10;}
	.st5{opacity:0.4;fill:none;stroke:#E69163;stroke-miterlimit:10;stroke-dasharray:2;enable-background:new    ;}
</style>
<g id="Layer_1_1_">
</g>
<g id="Layer_2">
	<line class="st0" x1="79.7" y1="219.5" x2="79.7" y2="306.1"/>
	<line class="st1" x1="79.7" y1="161.9" x2="79.7" y2="219.6"/>
	<line class="st0" x1="4.7" y1="176.2" x2="4.7" y2="262.8"/>
	<line class="st0" x1="4.7" y1="176.3" x2="54.7" y2="147.4"/>
	<line class="st1" x1="4.7" y1="262.8" x2="79.7" y2="219.5"/>
	<line class="st0" x1="79.7" y1="219.6" x2="154.7" y2="176.3"/>
	<line class="st0" x1="79.7" y1="306.1" x2="129.8" y2="277.4"/>
	<line class="st0" x1="4.7" y1="176.3" x2="79.7" y2="219.6"/>
	<line class="st0" x1="4.7" y1="262.8" x2="79.7" y2="306.1"/>
	<line class="st1" x1="79.7" y1="219.5" x2="154.7" y2="262.9"/>
	<line class="st0" x1="104.7" y1="147.4" x2="154.7" y2="176.3"/>
	<line class="st0" x1="154.7" y1="89.8" x2="154.7" y2="176.4"/>
	<line class="st1" x1="154.7" y1="3.3" x2="154.7" y2="89.9"/>
	<line class="st0" x1="229.7" y1="46.6" x2="229.7" y2="75.6"/>
	<line class="st0" x1="79.7" y1="46.5" x2="79.7" y2="104.1"/>
	<line class="st0" x1="79.7" y1="46.6" x2="154.7" y2="3.3"/>
	<line class="st1" x1="104.7" y1="118.5" x2="154.7" y2="89.8"/>
	<line class="st0" x1="154.7" y1="89.8" x2="229.7" y2="46.5"/>
	<line class="st0" x1="79.7" y1="46.5" x2="154.7" y2="89.8"/>
	<line class="st0" x1="154.7" y1="3.2" x2="229.7" y2="46.5"/>
	<line class="st1" x1="154.7" y1="89.8" x2="229.7" y2="133.1"/>
	<line class="st0" x1="179.8" y1="161.9" x2="229.8" y2="190.7"/>
	<line class="st0" x1="229.8" y1="133.1" x2="229.8" y2="190.8"/>
	<line class="st1" x1="229.8" y1="75.6" x2="229.8" y2="133.2"/>
	<line class="st0" x1="279.7" y1="104.4" x2="279.7" y2="162"/>
	<line class="st0" x1="179.8" y1="104.3" x2="179.8" y2="162"/>
	<line class="st0" x1="179.8" y1="104.4" x2="229.7" y2="75.6"/>
	<line class="st1" x1="179.8" y1="162" x2="229.7" y2="133.1"/>
	<line class="st0" x1="229.7" y1="133.2" x2="279.7" y2="104.4"/>
	<line class="st0" x1="229.7" y1="190.8" x2="279.7" y2="162"/>
	<line class="st0" x1="179.8" y1="104.3" x2="229.7" y2="133.2"/>
	<line class="st0" x1="229.8" y1="75.5" x2="279.7" y2="104.4"/>
	<line class="st1" x1="229.8" y1="133.1" x2="279.7" y2="162"/>
	<g>
		<line class="st2" x1="179.8" y1="248.7" x2="179.8" y2="277.5"/>
		<line class="st3" x1="154.7" y1="234.3" x2="154.7" y2="262.9"/>
		<line class="st2" x1="129.8" y1="277.4" x2="154.8" y2="291.9"/>
		<line class="st2" x1="154.8" y1="263.1" x2="154.8" y2="291.9"/>
		<line class="st2" x1="129.8" y1="248.6" x2="129.8" y2="277.5"/>
		<line class="st2" x1="129.8" y1="248.7" x2="154.8" y2="234.3"/>
		<line class="st3" x1="129.8" y1="277.5" x2="154.8" y2="263.1"/>
		<line class="st2" x1="154.8" y1="263.1" x2="179.8" y2="248.7"/>
		<line class="st2" x1="154.8" y1="291.9" x2="179.8" y2="277.5"/>
		<line class="st2" x1="129.8" y1="248.7" x2="154.8" y2="263.1"/>
		<line class="st2" x1="154.8" y1="234.3" x2="179.8" y2="248.7"/>
		<line class="st3" x1="154.8" y1="263.1" x2="179.8" y2="277.5"/>
	</g>
	<g>
		<line class="st4" x1="104.7" y1="118.6" x2="104.7" y2="147.4"/>
		<line class="st5" x1="79.6" y1="104.2" x2="79.6" y2="132.8"/>
		<line class="st4" x1="54.8" y1="147.4" x2="79.7" y2="161.8"/>
		<line class="st4" x1="79.7" y1="133" x2="79.7" y2="161.8"/>
		<line class="st4" x1="54.8" y1="118.6" x2="54.8" y2="147.4"/>
		<line class="st4" x1="54.7" y1="118.6" x2="79.7" y2="104.2"/>
		<line class="st5" x1="54.7" y1="147.4" x2="79.7" y2="133"/>
		<line class="st4" x1="79.7" y1="133" x2="104.7" y2="118.6"/>
		<line class="st4" x1="79.7" y1="161.8" x2="104.7" y2="147.4"/>
		<line class="st4" x1="54.7" y1="118.6" x2="79.7" y2="133"/>
		<line class="st4" x1="79.7" y1="104.2" x2="104.7" y2="118.6"/>
		<line class="st5" x1="79.7" y1="133" x2="104.7" y2="147.4"/>
	</g>
	<line class="st0" x1="179.8" y1="277.5" x2="229.7" y2="306.1"/>
	<line class="st0" x1="229.7" y1="219.6" x2="229.7" y2="306.2"/>
	<line class="st1" x1="229.7" y1="133.1" x2="229.7" y2="219.7"/>
	<line class="st0" x1="304.7" y1="176.4" x2="304.7" y2="263"/>
	<line class="st0" x1="154.7" y1="176.3" x2="154.8" y2="234.3"/>
	<line class="st0" x1="104.8" y1="205.2" x2="179.8" y2="161.9"/>
	<line class="st1" x1="154.7" y1="262.9" x2="229.7" y2="219.6"/>
	<line class="st0" x1="229.7" y1="219.6" x2="304.7" y2="176.3"/>
	<line class="st0" x1="229.7" y1="306.2" x2="304.7" y2="262.9"/>
	<line class="st0" x1="154.7" y1="176.3" x2="229.7" y2="219.6"/>
	<line class="st0" x1="279.7" y1="162" x2="304.7" y2="176.3"/>
	<line class="st1" x1="229.7" y1="219.6" x2="304.7" y2="262.9"/>
</g>
<g id="Layer_3">
</g>
</svg>
