<?xml version="1.0" encoding="UTF-8"?>
<svg width="50px" height="48px" viewBox="0 0 50 48" version="1.1" xmlns="http://www.w3.org/2000/svg" xmlns:xlink="http://www.w3.org/1999/xlink">
    <!-- Generator: Sketch 45.1 (43504) - http://www.bohemiancoding.com/sketch -->
    <title>Fill 205 + Fill 206 + Fill 207</title>
    <desc>Created with Sketch.</desc>
    <defs></defs>
    <g id="Page-1" stroke="none" stroke-width="1" fill="none" fill-rule="evenodd" opacity="0.146569293">
        <g id="var1-copy-2" transform="translate(-225.000000, -818.000000)" fill="#161616">
            <g id="Group-3" transform="translate(150.000000, 753.000000)">
                <g id="Fill-205-+-Fill-206-+-Fill-207" transform="translate(75.000000, 65.000000)">
                    <path d="M11.9047619,8.96571429 L11.9047619,14.2871429 L7.33809524,14.2871429 C8.52619048,12.2419048 10.0714286,10.4371429 11.9047619,8.96571429 L11.9047619,8.96571429 Z M11.9047619,28.5728571 L5.38809524,28.5728571 C4.9952381,27.0466667 4.76190476,25.4561905 4.76190476,23.8109524 C4.76190476,22.1657143 4.9952381,20.5752381 5.38809524,19.0490476 L11.9047619,19.0490476 L11.9047619,28.5728571 Z M11.9047619,38.6561905 C10.0714286,37.1847619 8.52619048,35.377619 7.33809524,33.3347619 L11.9047619,33.3347619 L11.9047619,38.6561905 Z M0,23.8109524 C0,36.9419048 10.6809524,47.6204762 23.8095238,47.6204762 L23.8095238,42.8585714 C21.2833333,42.8585714 18.8738095,42.3538095 16.6666667,41.4561905 L16.6666667,33.3347619 L23.8095238,33.3347619 L23.8095238,28.5728571 L16.6666667,28.5728571 L16.6666667,19.0490476 L23.8095238,19.0490476 L23.8095238,14.2871429 L16.6666667,14.2871429 L16.6666667,6.16571429 C18.8738095,5.26809524 21.2833333,4.76333333 23.8095238,4.76333333 L23.8095238,0.00142857143 C10.6809524,0.00142857143 0,10.682381 0,23.8109524 L0,23.8109524 Z" id="Fill-205"></path>
                    <path d="M38.0952381,9.525 C36.7833333,9.525 35.7142857,8.45595238 35.7142857,7.14404762 C35.7142857,5.83214286 36.7833333,4.76309524 38.0952381,4.76309524 C39.4071429,4.76309524 40.4761905,5.83214286 40.4761905,7.14404762 C40.4761905,8.45595238 39.4071429,9.525 38.0952381,9.525 M45.2380952,7.14404762 C45.2380952,3.20595238 42.0333333,0.00119047619 38.0952381,0.00119047619 C34.1571429,0.00119047619 30.952381,3.20595238 30.952381,7.14404762 C30.952381,11.0821429 34.1571429,14.2869048 38.0952381,14.2869048 C42.0333333,14.2869048 45.2380952,11.0821429 45.2380952,7.14404762" id="Fill-206"></path>
                    <path d="M45.2380952,30.9535714 L42.8571429,30.9535714 C41.5428571,30.9535714 40.4761905,32.0202381 40.4761905,33.3345238 L40.4761905,42.8583333 L35.7142857,42.8583333 L35.7142857,33.3345238 C35.7142857,32.0202381 34.647619,30.9535714 33.3333333,30.9535714 L30.952381,30.9535714 L30.952381,26.1916667 C30.952381,22.2535714 34.1571429,19.0488095 38.0952381,19.0488095 C42.0333333,19.0488095 45.2380952,22.2535714 45.2380952,26.1916667 L45.2380952,30.9535714 Z M38.0952381,14.2869048 C31.5309524,14.2869048 26.1904762,19.627381 26.1904762,26.1916667 L26.1904762,33.3345238 C26.1904762,34.6488095 27.2571429,35.7154762 28.5714286,35.7154762 L30.952381,35.7154762 L30.952381,45.2392857 C30.952381,46.5535714 32.0190476,47.6202381 33.3333333,47.6202381 L42.8571429,47.6202381 C44.1714286,47.6202381 45.2380952,46.5535714 45.2380952,45.2392857 L45.2380952,35.7154762 L47.6190476,35.7154762 C48.9333333,35.7154762 50,34.6488095 50,33.3345238 L50,26.1916667 C50,19.627381 44.6595238,14.2869048 38.0952381,14.2869048 L38.0952381,14.2869048 Z" id="Fill-207"></path>
                </g>
            </g>
        </g>
    </g>
</svg>