<?xml version="1.0" encoding="UTF-8"?>
<svg width="47px" height="53px" viewBox="0 0 47 53" version="1.1" xmlns="http://www.w3.org/2000/svg" xmlns:xlink="http://www.w3.org/1999/xlink">
    <!-- Generator: Sketch 45.1 (43504) - http://www.bohemiancoding.com/sketch -->
    <title>Fill 851 + Fill 852</title>
    <desc>Created with Sketch.</desc>
    <defs></defs>
    <g id="Page-1" stroke="none" stroke-width="1" fill="none" fill-rule="evenodd" opacity="0.146569293">
        <g id="var1-copy-2" transform="translate(-962.000000, -814.000000)" fill="#161616">
            <g id="Group-3" transform="translate(150.000000, 753.000000)">
                <g id="Fill-851-+-Fill-852" transform="translate(812.000000, 61.000000)">
                    <path d="M26.9447368,14.475 C26.9447368,12.2960526 25.1763158,10.5276316 22.9973684,10.5276316 C20.8184211,10.5276316 19.05,12.2960526 19.05,14.475 C19.05,16.6539474 20.8184211,18.4223684 22.9973684,18.4223684 C25.1763158,18.4223684 26.9447368,16.6539474 26.9447368,14.475" id="Fill-851"></path>
                    <path d="M26.9447368,47.3697368 C15.3368421,47.3697368 5.89210526,37.925 5.89210526,26.3171053 C5.89210526,14.7092105 15.3368421,5.26447368 26.9447368,5.26447368 C31.6473684,5.26447368 36.1315789,6.83026316 39.8184211,9.71973684 L25.0842105,24.4565789 C24.5894737,24.9486842 24.3131579,25.6197368 24.3131579,26.3171053 C24.3131579,27.0171053 24.5894737,27.6855263 25.0842105,28.1776316 L39.8184211,42.9144737 C36.1315789,45.8039474 31.6473684,47.3697368 26.9447368,47.3697368 L26.9447368,47.3697368 Z M30.6657895,26.3171053 L45.5105263,11.4697368 C46.5394737,10.4460526 46.5394737,8.77763158 45.5131579,7.75131579 C40.5236842,2.75394737 33.9289474,0.00131578947 26.9447368,0.00131578947 C12.4342105,0.00131578947 0.628947368,11.8039474 0.628947368,26.3171053 C0.628947368,40.8302632 12.4342105,52.6328947 26.9447368,52.6328947 C33.9289474,52.6328947 40.5236842,49.8802632 45.5131579,44.8828947 C46.5394737,43.8565789 46.5394737,42.1907895 45.5105263,41.1644737 L30.6657895,26.3171053 Z" id="Fill-852"></path>
                </g>
            </g>
        </g>
    </g>
</svg>