<?xml version="1.0" encoding="UTF-8"?>
<svg width="52px" height="45px" viewBox="0 0 52 45" version="1.1" xmlns="http://www.w3.org/2000/svg" xmlns:xlink="http://www.w3.org/1999/xlink">
    <!-- Generator: Sketch 45.1 (43504) - http://www.bohemiancoding.com/sketch -->
    <title>Fill 190</title>
    <desc>Created with Sketch.</desc>
    <defs></defs>
    <g id="Page-1" stroke="none" stroke-width="1" fill="none" fill-rule="evenodd" opacity="0.146569293">
        <g id="var1-copy-2" transform="translate(-595.000000, -820.000000)" fill="#161616">
            <g id="Group-3" transform="translate(150.000000, 753.000000)">
                <g id="Fill-190" transform="translate(444.000000, 67.000000)">
                    <path d="M6.1987,23.91532 L6.1987,17.68832 L47.7987,8.44272 L47.7987,33.16092 L6.1987,23.91532 Z M20.7535,38.65992 L13.9987,36.96992 L13.9987,30.97432 L24.7289,33.35852 L20.7535,38.65992 Z M47.7987,0.00052 L47.7987,3.11792 L6.1987,12.36092 L6.1987,10.40052 L0.9987,10.40052 L0.9987,31.20052 L6.1987,31.20052 L6.1987,29.24272 L8.7987,29.81992 L8.7987,39.00052 C8.7987,40.19392 9.6099,41.23392 10.7669,41.52512 L21.1669,44.12512 C21.3775,44.17712 21.5881,44.20052 21.7987,44.20052 C22.6047,44.20052 23.3795,43.82612 23.8787,43.16052 L30.3007,34.59872 L47.7987,38.48572 L47.7987,41.60052 L52.9987,41.60052 L52.9987,0.00052 L47.7987,0.00052 Z"></path>
                </g>
            </g>
        </g>
    </g>
</svg>