<?xml version="1.0" encoding="UTF-8"?>
<svg width="35px" height="35px" viewBox="0 0 35 35" version="1.1" xmlns="http://www.w3.org/2000/svg" xmlns:xlink="http://www.w3.org/1999/xlink">
    <!-- Generator: Sketch 45.1 (43504) - http://www.bohemiancoding.com/sketch -->
    <title>wheel</title>
    <desc>Created with Sketch.</desc>
    <defs></defs>
    <g id="Page-1" stroke="none" stroke-width="1" fill="none" fill-rule="evenodd">
        <g id="var1-copy-2" transform="translate(-152.000000, -18.000000)" fill-rule="nonzero" fill="#FFFFFF">
            <g id="wheel" transform="translate(152.000000, 18.000000)">
                <path d="M32.7681848,22.034148 C31.7218767,20.9912877 30.3939493,20.2759316 28.9469304,19.9756966 C25.9911239,19.2946492 23.8753188,16.6955288 23.8102666,13.6654315 C23.7620418,12.7306913 23.9277163,11.7972496 24.2947724,10.9360475 C24.3356096,10.8368805 24.3823295,10.7377818 24.4290495,10.6386147 L24.4815838,10.5278291 C26.1090524,6.66919815 24.2975769,2.22294588 20.4355538,0.596974998 C16.5735307,-1.02906423 12.1233697,0.78082022 10.4959694,4.63945122 C9.69591588,6.53626917 9.70220905,8.67659661 10.513344,10.5686988 L10.5483669,10.638683 C10.5950869,10.7378501 10.6417384,10.8369488 10.6884584,10.9478027 C11.0517522,11.805861 11.215443,12.7350653 11.1670813,13.6654998 C11.1019607,16.6955288 8.98622407,19.2947175 6.03041753,19.9757649 C1.92644935,20.8393591 -0.699786575,24.8635191 0.164566748,28.9638827 C1.02892007,33.0642462 5.05654935,35.6881754 9.16058594,34.8245813 C10.5935136,34.5230478 11.908581,33.8140477 12.947433,32.7829425 C15.4586134,30.2790936 19.5246857,30.2790936 22.0358661,32.7829425 C25.0066531,35.7440124 29.8174401,35.7382715 32.7811131,32.7701622 C35.7446493,29.8018478 35.7389034,24.9952179 32.7681848,22.034148 Z M17.4885714,2.32799053 C20.3899283,2.32799053 22.7420009,4.6779972 22.7420009,7.57680578 C22.7420009,10.4756144 20.3899283,12.825621 17.4885714,12.825621 C14.5872144,12.825621 12.2351419,10.4756144 12.2351419,7.57680578 C12.2395197,4.67977415 14.5889929,2.3322962 17.4885714,2.32799053 Z M7.56540396,32.6544559 C4.66404703,32.6544559 2.31197446,30.3044492 2.31197446,27.4056406 C2.31197446,24.5068321 4.66404703,22.1568254 7.56540396,22.1568254 C10.4667609,22.1568254 12.8188335,24.5068321 12.8188335,27.4056406 C12.814524,30.3026723 10.4650508,32.6500819 7.56540396,32.6544559 Z M17.4885714,25.6560355 C14.5889929,25.6516615 12.2395197,23.3042519 12.2351419,20.4072203 C12.2351419,17.5084117 14.5872144,15.158405 17.4885714,15.158405 C20.3899283,15.158405 22.7420009,17.5084117 22.7420009,20.4072203 C22.7420009,23.3060289 20.3899967,25.6560355 17.4885714,25.6560355 Z M27.4117388,32.6544559 C24.5103819,32.6544559 22.1583093,30.3044492 22.1583093,27.4056406 C22.1583093,24.5068321 24.5103819,22.1568254 27.4117388,22.1568254 C30.3130957,22.1568254 32.6651683,24.5068321 32.6651683,27.4056406 C32.6607904,30.3026723 30.3113172,32.6500819 27.4117388,32.6544559 Z" id="Shape"></path>
                <path d="M17.5,3.67073106 C15.3783942,3.67073106 13.6585366,5.390653 13.6585366,7.51219447 C13.6608518,9.63283559 15.3794232,11.3513427 17.5,11.3536579 C19.6216058,11.3536579 21.3414634,9.63373594 21.3414634,7.51219447 C21.3414634,5.390653 19.6216058,3.67073106 17.5,3.67073106 Z M17.5,10.2561337 C15.9845857,10.2561337 14.7560608,9.0276088 14.7560608,7.51219447 C14.7565753,5.99697308 15.9847786,4.76883408 17.5,4.76825528 C19.0154143,4.76825528 20.2439392,5.99678015 20.2439392,7.51219447 C20.2439392,9.0276088 19.0154143,10.2561337 17.5,10.2561337 Z" id="Shape"></path>
                <path d="M17.5,16.4756091 C15.3783942,16.4756091 13.6585366,18.1955311 13.6585366,20.3170725 C13.6585366,22.438614 15.3784585,24.1585359 17.5,24.1585359 C19.6206411,24.1562208 21.3391482,22.4376493 21.3414634,20.3170725 C21.3414634,18.1954667 19.6216058,16.4756091 17.5,16.4756091 Z" id="Shape"></path>
                <path d="M7.59755577,23.4756098 C5.47594999,23.4756098 3.75609235,25.1955317 3.75609235,27.3170732 C3.75609235,29.4386146 5.4760143,31.1585366 7.59755577,31.1585366 C9.71909723,31.1585366 11.4390192,29.4386146 11.4390192,27.3170732 C11.4367683,25.196432 9.71819689,23.4779249 7.59755577,23.4756098 Z M7.59755577,30.0610124 C6.08214144,30.0610124 4.85361658,28.8325518 4.85361658,27.3170732 C4.85361658,25.8016588 6.08214144,24.573134 7.59755577,24.573134 C9.11297009,24.573134 10.341495,25.8015945 10.341495,27.3170732 C10.3409805,28.8322946 9.11277716,30.0604336 7.59755577,30.0610124 Z" id="Shape"></path>
                <path d="M27.4878023,23.6463421 C25.3661965,23.6463421 23.6463389,25.3662641 23.6463389,27.4878055 C23.6463389,29.609347 25.3662608,31.3292689 27.4878023,31.3292689 C29.6093437,31.3292689 31.3292657,29.609347 31.3292657,27.4878055 C31.3269505,25.3671644 29.6084434,23.6486573 27.4878023,23.6463421 Z M27.4878023,30.2317447 C25.9723879,30.2317447 24.7438631,29.0032842 24.7438631,27.4878055 C24.7438631,25.9723912 25.9723236,24.7438663 27.4878023,24.7438663 C29.0032166,24.7438663 30.2317415,25.9723269 30.2317415,27.4878055 C30.2311627,29.0030269 29.0029594,30.2311659 27.4878023,30.2317447 Z" id="Shape"></path>
            </g>
        </g>
    </g>
</svg>