<?xml version="1.0" encoding="UTF-8"?>
<svg width="58px" height="45px" viewBox="0 0 58 45" version="1.1" xmlns="http://www.w3.org/2000/svg" xmlns:xlink="http://www.w3.org/1999/xlink">
    <!-- Generator: Sketch 45.1 (43504) - http://www.bohemiancoding.com/sketch -->
    <title>“</title>
    <desc>Created with Sketch.</desc>
    <defs></defs>
    <g id="Page-1" stroke="none" stroke-width="1" fill="none" fill-rule="evenodd" opacity="0.197124094">
        <g id="var1-copy-2" transform="translate(-150.000000, -1297.000000)" fill="#161616">
            <g id="Group-2-Copy" transform="translate(150.000000, 1293.000000)">
                <path d="M26.5111744,36.8654804 C26.5111744,30.2291815 22.4029893,25.9629893 15.292669,25.9629893 C13.870605,25.9629893 12.7645552,26.2790036 11.9745196,26.7530249 C12.2905338,19.4846975 18.9268327,14.5864769 24.9311032,13.6384342 L24.9311032,4 C14.9766548,4.9480427 0.44,12.058363 0.44,33.2313167 C0.44,41.605694 5.81224199,48.4 14.1866192,48.4 C21.6129537,48.4 26.5111744,43.027758 26.5111744,36.8654804 Z M57.6385765,36.8654804 C57.6385765,30.2291815 53.5303915,25.9629893 46.4200712,25.9629893 C44.9980071,25.9629893 43.8919573,26.2790036 43.1019217,26.7530249 C43.4179359,19.4846975 50.0542349,14.5864769 56.0585053,13.6384342 L56.0585053,4 C46.1040569,4.9480427 31.5674021,12.058363 31.5674021,33.2313167 C31.5674021,41.605694 36.9396441,48.4 45.3140214,48.4 C52.7403559,48.4 57.6385765,43.027758 57.6385765,36.8654804 Z" id="“"></path>
            </g>
        </g>
    </g>
</svg>